<svg xmlns="http://www.w3.org/2000/svg" xmlns:xlink="http://www.w3.org/1999/xlink" viewBox="0 0 100 100"><defs><style>.cls-1{fill:url(#linear-gradient);}.cls-2{fill:#fff;}.cls-3{fill:url(#linear-gradient-2);}</style><linearGradient id="linear-gradient" x1="50" x2="50" y2="100" gradientUnits="userSpaceOnUse"><stop offset="0" stop-color="#5751d5"/><stop offset="1" stop-color="#6d73e1"/></linearGradient><linearGradient id="linear-gradient-2" x1="50" y1="46.5" x2="50" y2="100" gradientUnits="userSpaceOnUse"><stop offset="0.83" stop-color="#5751d5"/><stop offset="1" stop-color="#3f41bd"/></linearGradient></defs><g id="Layer_2" data-name="Layer 2"><g id="Layer_1-2" data-name="Layer 1"><circle class="cls-1" cx="50" cy="50" r="50"/><path class="cls-2" d="M55.41,65H44.59C31.56,65,21,69.65,21,84v2.38a42.08,42.08,0,0,0,58,0V84C79,69.65,68.44,65,55.41,65Z"/><circle class="cls-2" cx="50" cy="34" r="18"/><path class="cls-3" d="M50,93A50,50,0,0,1,.14,46.5C.06,47.66,0,48.82,0,50a50,50,0,0,0,100,0c0-1.18-.06-2.34-.14-3.5A50,50,0,0,1,50,93Z"/></g></g></svg>