<svg xmlns="http://www.w3.org/2000/svg" viewBox="0 0 500 433.19"><defs><style>.cls-1{fill:#404040;}</style></defs><g id="Layer_2" data-name="Layer 2"><g id="Layer_1-2" data-name="Layer 1"><polygon class="cls-1" points="151.24 0 203.35 433.19 219.22 433.19 206.55 0 151.24 0"/><polygon class="cls-1" points="79.04 79.97 119.51 253.54 83.02 274.61 37.94 150.89 0 216.59 124.98 433.19 140.81 433.19 101.46 325.21 132.09 307.52 161.39 433.19 177.25 433.19 125.13 0.17 79.04 79.97"/><polygon class="cls-1" points="292.91 0 270.86 225.07 266.25 0.09 232.65 0.09 245.32 433.19 250.47 433.19 275.12 433.19 276.66 433.19 325.57 0 292.91 0"/><polygon class="cls-1" points="470.21 268.18 500 216.59 387.71 21.95 387.71 21.94 387.7 21.94 386.92 20.58 386.92 20.58 386.35 19.59 386.04 19.07 386.04 19.07 375.13 0.17 351.35 0 302.76 433.19 328.12 433.19 339.63 433.19 374.45 433.19 381.47 421.85 381.59 421.92 383.74 418.17 383.82 418.05 383.82 418.05 413.92 365.78 387.36 350.44 345 387.27 355.48 297.6 428.79 339.93 455.31 294 362.19 240.23 377.23 111.61 450.73 211.64 443.94 253.07 470.21 268.18"/></g></g></svg>