<svg width="74" height="54" viewBox="0 0 74 54" fill="none" xmlns="http://www.w3.org/2000/svg">
<path d="M51.7192 1.23004C50.9028 1.42535 50.0825 1.61676 49.2661 1.80816C28.0276 6.7261 15.8489 17.8354 15.8489 32.2923L15.841 32.4915C15.8093 39.136 20.9534 45.4055 23.6761 47.3196C24.0764 28.2767 33.9644 12.3432 51.7192 1.23004Z" fill="#74DB23"/>
<path d="M11.7272 28.9403C12.9716 17.9716 20.3747 8.96779 32.8348 2.96393C30.7859 3.42486 27.0249 4.29204 26.3313 4.45611C13.9505 7.31937 6.84062 13.7139 6.8208 21.999C6.8208 22.0224 6.8208 22.0419 6.8208 22.0654C6.84062 22.5341 7.11407 28.3622 9.72974 33.3856C10.1578 34.2059 11.426 33.9325 11.4696 33.0106C11.5528 31.3465 11.6598 29.5497 11.7272 28.9403Z" fill="#5652CF"/>
<path d="M1.20105 19.4681C1.64095 20.1556 2.58814 20.1282 2.70704 19.3236C3.64234 12.9408 7.91856 7.67521 14.9531 4.03851C14.6955 4.08539 14.434 4.13226 14.1843 4.17914C5.78243 5.80803 0.725469 9.76113 0.0438092 14.14C-0.186053 16.1908 0.531275 18.4173 1.20105 19.4681Z" fill="#5652CF"/>
<path d="M69.5929 0.00379907C69.3948 -0.000107152 65.4356 -0.242293 55.8329 3.89049C36.8257 13.6873 27.9602 29.9333 27.9602 48.5191L27.9522 48.6988C27.9166 49.1246 27.8928 49.5386 27.8611 49.9605C31.3605 51.9097 34.9789 53.2847 38.5814 53.7847C48.3505 55.1401 70.334 50.5269 67.1992 27.5388C66.3828 21.5701 62.6178 9.44514 71.8915 3.89049C74.8005 2.14441 72.3711 0.0780173 69.5929 0.00379907Z" fill="#74DB23"/>
</svg>
