<svg width="135" height="31" viewBox="0 0 135 31" fill="none" xmlns="http://www.w3.org/2000/svg">
<path d="M50.5229 5.32196C50.6686 5.46084 50.7403 5.70824 50.7403 6.06848V8.93087H54.2919C54.6443 8.93087 54.8944 9.00032 55.0401 9.13703C55.1858 9.27592 55.2576 9.52332 55.2576 9.88356V11.3462C55.2576 11.7065 55.1858 11.9604 55.0401 12.1101C54.8944 12.2577 54.6443 12.3336 54.2919 12.3336H50.7403V18.7246C50.7403 19.5102 50.8034 20.1396 50.9274 20.617C51.0514 21.0944 51.2493 21.4655 51.519 21.7303C51.7886 21.995 52.1475 22.1708 52.5934 22.2554C53.0392 22.3401 53.596 22.3835 54.2593 22.3835C54.6334 22.3835 54.8922 22.4529 55.0379 22.5896C55.1837 22.7285 55.2554 22.9868 55.2554 23.3687V24.8314C55.2554 25.2133 55.1837 25.4716 55.0379 25.6104C54.8922 25.7472 54.6334 25.8275 54.2593 25.8492C52.9718 25.8904 51.8756 25.8058 50.9731 25.5953C50.0683 25.3826 49.331 25.0072 48.7612 24.4668C48.1892 23.9264 47.7738 23.1994 47.515 22.288C47.2562 21.3765 47.1257 20.2307 47.1257 18.8527V12.3358H44.9747C44.6224 12.3358 44.3788 12.262 44.2418 12.1123C44.1069 11.9647 44.0395 11.7108 44.0395 11.3484V9.88573C44.0395 9.52549 44.1069 9.27592 44.2418 9.1392C44.3766 9.00249 44.6202 8.93304 44.9747 8.93304H47.1257V6.07065C47.1257 5.71041 47.1974 5.46084 47.3432 5.32413C47.4889 5.18741 47.7368 5.11797 48.0913 5.11797H49.7747C50.1292 5.1158 50.3771 5.18524 50.5229 5.32196Z" fill="#5652CF"/>
<path d="M57.2346 15.3241C57.2346 13.0975 57.8479 11.3961 59.0723 10.2199C60.2968 9.04373 62.0954 8.45562 64.4639 8.45562C65.7101 8.45562 66.7845 8.62489 67.6893 8.96343C68.594 9.30197 69.34 9.76855 69.9316 10.3632C70.5231 10.9578 70.9603 11.6566 71.2409 12.4617C71.5214 13.2668 71.6606 14.1262 71.6606 15.0376V16.9777C71.6606 17.403 71.5627 17.7351 71.3648 17.9803C71.1669 18.2233 70.7994 18.347 70.2578 18.347H60.8492V19.5233C60.8492 20.5627 61.1559 21.3527 61.767 21.893C62.3804 22.4334 63.2568 22.7047 64.4008 22.7047C65.336 22.7047 66.0994 22.5571 66.691 22.2598C67.2826 21.9625 67.7458 21.5501 68.0786 21.0185C68.3287 20.6582 68.5614 20.4521 68.7789 20.3978C68.9964 20.3457 69.2922 20.4239 69.6662 20.6365L70.7559 21.2398C71.4627 21.5805 71.5867 22.11 71.1299 22.8305C70.5688 23.7854 69.7489 24.5319 68.668 25.0723C67.587 25.6126 66.1647 25.8839 64.3987 25.8839C63.1111 25.8839 62.015 25.7146 61.1124 25.3761C60.2076 25.0375 59.4703 24.5645 58.9005 23.9612C58.3285 23.3579 57.9088 22.6374 57.6391 21.7997C57.3694 20.962 57.2346 20.0549 57.2346 19.0805V15.3241ZM68.0459 14.8163C68.0459 13.7789 67.7436 12.9782 67.1434 12.4161C66.5409 11.854 65.647 11.5741 64.4639 11.5741C63.2786 11.5741 62.3804 11.8562 61.7692 12.4161C61.1559 12.9782 60.8514 13.7789 60.8514 14.8163V15.515H68.0481V14.8163H68.0459Z" fill="#5652CF"/>
<path d="M75.3819 10.1874C76.5454 9.03288 78.3528 8.45345 80.8039 8.45345C82.6525 8.45345 84.1271 8.85059 85.2276 9.64702C86.3281 10.4413 87.0763 11.433 87.4699 12.6201C87.5939 13.0237 87.6004 13.3254 87.4852 13.5272C87.3699 13.729 87.1372 13.9048 86.7848 14.0524L85.4147 14.4973C85.0406 14.6665 84.7557 14.6926 84.5577 14.5775C84.3598 14.4604 84.188 14.2108 84.0445 13.831C83.7944 13.1518 83.4007 12.6288 82.8613 12.2577C82.3198 11.8866 81.5847 11.7021 80.6495 11.7021C79.5272 11.7021 78.6812 11.9669 78.1092 12.4964C77.5372 13.0259 77.2523 13.8006 77.2523 14.8184V19.5254C77.2523 20.5215 77.5372 21.2897 78.1092 21.8301C78.6812 22.3705 79.5272 22.6417 80.6495 22.6417C81.5629 22.6417 82.2959 22.4464 82.8461 22.0536C83.3964 21.6608 83.7965 21.127 84.0445 20.4477C84.1902 20.0658 84.362 19.8336 84.5577 19.749C84.7557 19.6643 85.0406 19.686 85.4147 19.8119L86.8175 20.2264C87.1698 20.3739 87.409 20.5497 87.533 20.7515C87.657 20.9534 87.6374 21.255 87.4699 21.6587C86.9501 23.015 86.1345 24.0588 85.0232 24.7901C83.9118 25.5215 82.4111 25.8861 80.5211 25.8861C78.1527 25.8861 76.4128 25.3023 75.3014 24.1369C74.19 22.9716 73.6354 21.3809 73.6354 19.367V14.9747C73.6376 12.9391 74.2183 11.3441 75.3819 10.1874Z" fill="#5652CF"/>
<path d="M89.4578 13.5272C89.4578 11.9951 89.9993 10.756 91.0846 9.80761C92.1699 8.86143 93.8163 8.38618 96.0259 8.38618C97.8963 8.38618 99.3731 8.69433 100.458 9.31282C101.541 9.9313 102.34 10.7603 102.849 11.8041C103.04 12.1665 103.092 12.453 103.007 12.6657C102.923 12.8783 102.699 13.0693 102.337 13.2407L100.902 13.8158C100.541 13.9873 100.28 14.0393 100.121 13.9764C99.9625 13.9135 99.7755 13.7095 99.5645 13.3688C99.2883 12.8783 98.899 12.4812 98.4009 12.1709C97.9007 11.8627 97.1417 11.7086 96.1216 11.7086C95.0799 11.7086 94.3208 11.8519 93.8423 12.1405C93.3639 12.4269 93.1246 12.8588 93.1246 13.4339C93.1246 14.1782 93.4378 14.6687 94.0664 14.9031C94.6927 15.1374 95.6236 15.3067 96.8568 15.413C97.8137 15.5194 98.6902 15.6626 99.4862 15.8449C100.282 16.025 100.969 16.3028 101.541 16.6739C102.116 17.0471 102.561 17.5419 102.881 18.1582C103.199 18.7767 103.36 19.5732 103.36 20.5519C103.36 22.1274 102.781 23.4099 101.622 24.3995C100.463 25.3891 98.7467 25.8839 96.474 25.8839C94.5818 25.8839 93.0463 25.554 91.8676 24.8943C90.6888 24.2346 89.8536 23.2776 89.3642 22.0211C89.1098 21.3613 89.3207 20.9143 90.0015 20.6799L91.4369 20.2329C91.7545 20.1265 92.0111 20.1114 92.2025 20.1851C92.3939 20.2589 92.5744 20.4781 92.744 20.8405C92.9985 21.459 93.4182 21.906 94.0033 22.1817C94.5883 22.4573 95.3691 22.5961 96.3457 22.5961C98.5988 22.5961 99.7254 21.969 99.7254 20.7125C99.7254 19.9681 99.4122 19.4733 98.7837 19.2281C98.1573 18.9829 97.1939 18.7963 95.8976 18.6682C95.1103 18.5836 94.3361 18.4664 93.5705 18.3167C92.8049 18.1691 92.1198 17.9065 91.5152 17.5354C90.9106 17.1643 90.4147 16.663 90.0319 16.0337C89.647 15.4044 89.4578 14.5689 89.4578 13.5272Z" fill="#74DB23"/>
<path d="M118.938 8.39052C119.086 8.53158 119.162 8.78766 119.162 9.15441V22.5614C119.162 23.0606 119.084 23.436 118.923 23.6834C118.764 23.933 118.429 24.1673 117.918 24.3822C117.281 24.6426 116.461 24.8987 115.463 25.146C114.463 25.3956 113.199 25.5193 111.668 25.5193C109.373 25.5193 107.688 24.9442 106.613 23.7941C105.539 22.6439 105.004 21.0402 105.004 18.9786V9.15441C105.004 8.78549 105.078 8.53158 105.228 8.39052C105.376 8.24947 105.63 8.18002 105.993 8.18002H107.746C108.107 8.18002 108.358 8.25164 108.495 8.39052C108.632 8.53158 108.701 8.78766 108.701 9.15441V18.8527C108.701 21.0011 109.86 22.0753 112.177 22.0753C112.792 22.0753 113.329 22.0428 113.786 21.9777C114.243 21.9126 114.684 21.8149 115.108 21.6847C115.341 21.5979 115.459 21.4134 115.459 21.1313V9.15441C115.459 8.78549 115.533 8.53158 115.683 8.39052C115.83 8.24947 116.085 8.18002 116.448 8.18002H118.171C118.536 8.17785 118.791 8.24947 118.938 8.39052Z" fill="#74DB23"/>
<path d="M121.098 13.1279C121.098 11.5915 121.64 10.348 122.725 9.39746C123.81 8.44694 125.457 7.97169 127.666 7.97169C129.537 7.97169 131.013 8.28201 132.099 8.9005C133.182 9.51898 133.98 10.3523 134.489 11.3983C134.68 11.7607 134.732 12.0493 134.648 12.262C134.563 12.4747 134.339 12.6678 133.978 12.8393L132.542 13.4165C132.181 13.588 131.92 13.64 131.762 13.5771C131.603 13.512 131.416 13.3102 131.205 12.9695C130.929 12.479 130.539 12.0776 130.041 11.7672C129.541 11.4591 128.782 11.3028 127.762 11.3028C126.72 11.3028 125.961 11.4461 125.483 11.7347C125.004 12.0233 124.765 12.4552 124.765 13.0324C124.765 13.7789 125.078 14.2716 125.707 14.5059C126.333 14.7403 127.264 14.9117 128.497 15.0181C129.454 15.1244 130.331 15.2698 131.127 15.4499C131.923 15.6322 132.61 15.91 133.182 16.2833C133.756 16.6565 134.202 17.1535 134.522 17.772C134.839 18.3905 135 19.1934 135 20.1743C135 21.7541 134.421 23.041 133.262 24.0328C132.103 25.0245 130.387 25.5215 128.114 25.5215C126.222 25.5215 124.687 25.1895 123.508 24.5297C122.329 23.8678 121.494 22.9065 121.005 21.6478C120.75 20.9859 120.961 20.5389 121.642 20.3023L123.077 19.8531C123.395 19.7468 123.651 19.7316 123.843 19.8054C124.034 19.8813 124.215 20.0983 124.384 20.4607C124.639 21.0792 125.059 21.5285 125.644 21.8062C126.229 22.084 127.009 22.2229 127.986 22.2229C130.239 22.2229 131.366 21.5936 131.366 20.3327C131.366 19.5862 131.053 19.0892 130.424 18.844C129.798 18.5988 128.834 18.4122 127.538 18.2841C126.751 18.1995 125.976 18.0823 125.211 17.9326C124.445 17.7828 123.76 17.5224 123.156 17.1491C122.551 16.7759 122.055 16.2746 121.672 15.6431C121.289 15.0137 121.098 14.1739 121.098 13.1279Z" fill="#74DB23"/>
<path d="M28.3825 1.18353C27.9344 1.29204 27.4842 1.39837 27.0362 1.50471C15.381 4.23689 8.69751 10.4087 8.69751 18.4404L8.69316 18.551C8.67577 22.2424 11.4988 25.7255 12.9929 26.7888C13.2126 16.2095 18.6389 7.35753 28.3825 1.18353Z" fill="#74DB23"/>
<path d="M6.43562 16.5784C7.11854 10.4847 11.1812 5.48255 18.0191 2.14707C16.8947 2.40314 14.8307 2.88491 14.4501 2.97605C7.65573 4.56675 3.75398 8.11925 3.7431 12.7221C3.7431 12.7351 3.7431 12.746 3.7431 12.759C3.75398 13.0194 3.90405 16.2572 5.33947 19.048C5.57436 19.5037 6.27033 19.3518 6.29425 18.8397C6.33992 17.9152 6.39865 16.9169 6.43562 16.5784Z" fill="#5652CF"/>
<path d="M0.65911 11.3158C0.900523 11.6978 1.42032 11.6826 1.48557 11.2355C1.99884 7.68956 4.34555 4.76423 8.20599 2.74385C8.06462 2.76989 7.92107 2.79593 7.78406 2.82197C3.17329 3.72692 0.398123 5.92308 0.0240417 8.35579C-0.102102 9.4951 0.291553 10.7321 0.65911 11.3158Z" fill="#5652CF"/>
<path d="M38.1912 0.502111C38.0825 0.49994 35.9098 0.365393 30.64 2.66138C20.2092 8.10405 15.344 17.1296 15.344 27.455L15.3396 27.5549C15.3201 27.7914 15.307 28.0215 15.2896 28.2558C17.21 29.3387 19.1957 30.1026 21.1727 30.3804C26.5338 31.1334 38.5979 28.5705 36.8776 15.7993C36.4296 12.4834 34.3634 5.7473 39.4527 2.66138C41.049 1.69134 39.7158 0.543343 38.1912 0.502111Z" fill="#74DB23"/>
</svg>
