<svg xmlns="http://www.w3.org/2000/svg" viewBox="0 0 246.11 177.19"><defs><style>.cls-1{fill:#a3261f;}.cls-2{fill:#0f1470;}.cls-3{fill:#f6a999;}.cls-4{fill:#e28560;}.cls-5{fill:#d34233;}.cls-6{fill:#3e49e1;}.cls-7{opacity:0.6;}.cls-8{fill:#091140;}</style></defs><g id="Layer_2" data-name="Layer 2"><g id="OBJECTS"><g id="_01" data-name="01"><path class="cls-1" d="M95,78.18s5.66,2.49,12,18.69,16.32,29.56,18.27,30.39,13,5.07,13,5.07-1,8.77-8.94,6.58S96.75,136.72,95,128.37,83.5,89.5,84.33,85.84,95,78.18,95,78.18Z"/><path class="cls-2" d="M148.63,96.27s-5.61,2.45-15.48,16.86-14.59,20.58-14.59,20.58,13.74,2.22,15,.95,4.72-7.68,5.84-9.9,14.18-24.06,14.18-24.06Z"/><path class="cls-3" d="M152.23,82.46l.17-.08c6.73-3.49,15.42-7.15,20.43-8.23,1-.34,1.58-.5,1.58-.5s17.89-17.59,9.26-26.23-21.53-9.2-22.87-8.93-24.44,13.79-24.44,13.79S130.25,85,152.23,82.46Z"/><path class="cls-4" d="M129.77,54.86s20-.5,28.86-1.62A74,74,0,0,1,161.41,43S160,50.43,166.7,53.51c4.17-3,10.85-3.33,11.41,2.52s-2.5,10.85-8.63,10.85c-.78.94-.06,4.79.71,8,3.58-1.08,6.18-1.42,6.62-.42,1.63-1.59,3.33-3.32,4.64-4.86,4.64-5.46,15.86-19.95,5.56-36.08S160.86,20,151.1,21.89c0,0-26.14-1.76-23.91,25.79A51.78,51.78,0,0,0,129.77,54.86Z"/><path class="cls-5" d="M153.32,44.11a.55.55,0,0,0-1.07-.29,17.73,17.73,0,0,0,.22,10l1.14-.09A16.77,16.77,0,0,1,153.32,44.11Z"/><path class="cls-5" d="M145.81,41.7a.55.55,0,0,0-1.07-.29c-1.11,3.9-1.45,9.18.73,12.84l1.29-.07C144.4,50.76,144.73,45.51,145.81,41.7Z"/><path class="cls-5" d="M168.37,41.83c-.06-.71-1.17-.71-1.11,0,.28,3.34,1,7.5,3.62,9.78a8.89,8.89,0,0,1,1.6-.21C169.37,49.63,168.65,45.12,168.37,41.83Z"/><path class="cls-6" d="M177.27,86.91s1-9.11-.46-12.48-27.83,8.5-33,13.32C142.68,90.35,152,100,152,100c-3.34,4.45-19.76,23.38-16.37,30.8l-.69,2.59L110,157.87s17.43,21.52,44.89,9.28c9.28-4.46,29.56-37.85,31.11-51.95S189.15,90.62,177.27,86.91Z"/><path class="cls-2" d="M176.86,100.76c-.64-.33-1.2.63-.56,1a6.2,6.2,0,0,1,2,1.59c.46.55,1.24-.24.79-.79A7,7,0,0,0,176.86,100.76Z"/><path class="cls-2" d="M160.32,153.18a4.43,4.43,0,0,0-3.58.72,4.89,4.89,0,0,0-.8-3.43,2.16,2.16,0,0,0-3.23.1c-1.75,2.41-1.16,7.66.76,9.87a.42.42,0,0,0,.2.17.43.43,0,0,0,.33,0,12,12,0,0,0,4.29-1.26c1.36-.63,3.15-1.64,3.7-3.14A2.33,2.33,0,0,0,160.32,153.18Zm-.35,3.87a10.81,10.81,0,0,1-5.81,2.47c-1.28-1.63-1.34-4.4-1.18-6.33.1-1.21,1.56-3.87,2.51-1.3a8.69,8.69,0,0,1,.09,3.22.42.42,0,0,0,0,.33.16.16,0,0,0,0,.07l0,0a.56.56,0,0,0,.53.2h.05a.39.39,0,0,0,.14-.05l.06,0,.11-.1s0,0,.05-.05a3.43,3.43,0,0,1,3.82-1.12C161.79,155,160.61,156.48,160,157.05Z"/><path class="cls-2" d="M163.42,139.22a28.56,28.56,0,0,0-14.26,6c-7.36,5.81-13.79,16.77-9.64,25.66.4,0,.79,0,1.2-.05-4.35-8.37,2-18.59,8.67-24.36a26.74,26.74,0,0,1,12.76-5.91c4-.79,9.3-1.1,13,1.13.19-.32.37-.64.55-1C172.15,138.61,167.43,138.71,163.42,139.22Z"/><path class="cls-2" d="M169.48,98.32a20.42,20.42,0,0,0-9.21,2,27.41,27.41,0,0,1,5.88-5.42c.59-.39,0-1.36-.57-1-7.19,4.7-12.15,13.48-16.31,20.75a109.46,109.46,0,0,0-4.92,10.46,34.35,34.35,0,0,1-3.14,5.82c-1.67,2.39-3.71.93-5.94,1-.15.56-.25.92-.3,1.12,2-.29,3.73,1.47,5.67.13a11.2,11.2,0,0,0,2.85-3.76c2-3.45,3.09-7.27,4.9-10.79a116.74,116.74,0,0,1,7.47-12.37c.58-.86,1.19-1.73,1.82-2.6,3-3.31,7.5-4.19,11.8-4.25A.56.56,0,0,0,169.48,98.32Z"/><g class="cls-7"><path class="cls-2" d="M184.9,120.25a.57.57,0,0,0,0,.25c.11-.34.21-.69.3-1C185.08,119.74,185,120,184.9,120.25Z"/></g><g class="cls-7"><path class="cls-2" d="M186,115.2c.09-.89.19-1.77.29-2.64a19.41,19.41,0,0,0-4.25-7.72c-.47-.54-1.26.25-.78.79,3,3.44,5.05,8.09,4.18,12.63A26.73,26.73,0,0,0,186,115.2Z"/></g><path class="cls-2" d="M175.67,87.33a45.24,45.24,0,0,0-2.85-13.18l-1.09.26a43.16,43.16,0,0,1,2.83,12.92C174.62,88,175.73,88.05,175.67,87.33Z"/><path class="cls-2" d="M168.65,89.39a.55.55,0,0,0,1.07-.29,90.77,90.77,0,0,0-4.23-12.62l-1,.4A90.46,90.46,0,0,1,168.65,89.39Z"/><path class="cls-2" d="M163.1,92.2c.29.66,1.25.09,1-.56-1.78-4.11-3.4-8.28-5.2-12.38l-1,.46C159.67,83.85,161.31,88.06,163.1,92.2Z"/><path class="cls-2" d="M157.73,94.71a.56.56,0,0,0,1-.57c-2.18-3.88-4.79-7.52-6.89-11.44l-1,.52C152.92,87.16,155.54,90.81,157.73,94.71Z"/><path class="cls-2" d="M153.37,97.32c.45.56,1.23-.23.78-.78-2.78-3.44-5.23-7.1-7.79-10.7-.33.21-.64.42-.92.62C148,90.11,150.54,93.84,153.37,97.32Z"/><path class="cls-4" d="M209.83,24.67c-10.39-9.27-28.69,1.95-28.69,2A30,30,0,0,1,187,33.49a25,25,0,0,1,4.21,14c3,5.53,4.85,16.94,1.55,35.67-3.9,22.09-15.16,39.24-16.75,50.58-.41,2.91,4.13,6.72,10-5.89-6.37,17.06-26.66,46-23.89,48.23s7.88,2.23,17.05-9.64c13.58-.38,23-25.1,31.75-50.46C225.41,73.83,220.22,34,209.83,24.67Z"/><path class="cls-5" d="M197,138.12c.32-.65-.64-1.21-1-.57A202.32,202.32,0,0,1,179.3,166.4a12.23,12.23,0,0,0,1.47-.16A205.73,205.73,0,0,0,197,138.12Z"/><path class="cls-5" d="M188.45,36q.28.55.54,1.11c15,.92,19.34,22.74,18.06,35.41-.07.71,1,.7,1.11,0C209.54,59,204.57,36.47,188.45,36Z"/><path class="cls-5" d="M198.81,50c-1.54-3.48-4.57-7.2-8.33-8.62.12.45.22.9.31,1.35,3.18,1.5,5.71,4.79,7.06,7.84C198.14,51.21,199.1,50.64,198.81,50Z"/><path class="cls-2" d="M196.83,14.5c-2.8-1.65-6.72,3.05-8.21,4.73a44,44,0,0,0-5.53,7.35c.34-5.37.37-15.18-4-13.94-4,1.14-2.62,7.2-.53,12,.68.45,1.35.94,2,1.48-2.17-4.61-4.67-12-1-12.45,3-.32,2.72,9,2.39,13.62.46.43.91.88,1.36,1.36a35.6,35.6,0,0,1,4.37-6.53c1.88-2.44,4.36-5.71,7.42-6.7,2-.64,2.58,1.88,2.23,3.32-.52,2.1-2.75,3.79-4.38,5a35.33,35.33,0,0,1-9.49,5.06c.27.29.54.59.8.9a35.3,35.3,0,0,0,11.3-6.66C197.71,21.13,200.41,16.6,196.83,14.5Z"/><path class="cls-5" d="M173.38,54.36c-3.71.14-5.56,4-5,7.38.12.7,1.19.4,1.07-.3a5.92,5.92,0,0,1,0-2A2.12,2.12,0,0,1,170.62,62c-.11.7,1,1,1.07.29.25-1.7-.27-3.35-1.94-3.9a4.08,4.08,0,0,1,3.63-2.92C174.09,55.44,174.1,54.33,173.38,54.36Z"/><path class="cls-5" d="M152.25,68.12c-.95,3.08-4.23,6.3-7.66,5.18-.69-.23-1,.85-.3,1.07,4,1.32,7.91-2.31,9-6C153.54,67.73,152.46,67.44,152.25,68.12Z"/><path class="cls-5" d="M138.17,70.24a7,7,0,0,1-3.71.18c1.22-2.07,1.54-4.42,2.17-6.73a.56.56,0,0,0-1.08-.3c-.66,2.45-.94,5-2.44,7.1a.56.56,0,0,0,.33.82,7.84,7.84,0,0,0,5,0A.55.55,0,0,0,138.17,70.24Z"/><path class="cls-1" d="M145.11,62.54c.83-.73,1.93-1,2.78-1.67.56-.46-.23-1.24-.78-.79a13,13,0,0,1-2,1.15c-.39-1.36-1.32-2.49-3-2.28-1.84.23-2.77,2.06-2.71,3.75,0,.72,1.14.72,1.11,0-.1-2.8,3.29-3.73,3.62-.55A.56.56,0,0,0,145.11,62.54Z"/><path class="cls-1" d="M140.1,53.08c1.43-1.29,3.85-.77,5.06.56.48.53,1.27-.26.78-.79a4.86,4.86,0,0,0-6.62-.56C138.78,52.77,139.57,53.56,140.1,53.08Z"/><path class="cls-3" d="M115,32.26s-.92,23.2-8.25,29.88S89.67,66,86.33,63.24a33.66,33.66,0,0,0-1.9,5.59S72.2,60.62,72.14,54.54C66,54.54,61,32.26,61,32.26s4.73-6.84,6.4-6.84,14.47.83,15.58,0,9.18-4.13,11.69-4.29,16.14-1.51,16.14,0S115,30.46,115,30.46Z"/><path class="cls-1" d="M108.56,43.45c-.39,1.49-1.31,2.87-3,2.55s-2.57-1.86-2.94-3.29a.56.56,0,0,0-1.08.29,5.32,5.32,0,0,0,4,4.12c2.23.41,3.65-1.45,4.16-3.38A.56.56,0,0,0,108.56,43.45Z"/><path class="cls-5" d="M109.62,37.49a13,13,0,0,0-4.42-.57c-.7.07-.71,1.18,0,1.11a11.75,11.75,0,0,1,4.12.54A.56.56,0,0,0,109.62,37.49Z"/><path class="cls-5" d="M101.9,57.34a5.27,5.27,0,0,1-5.79-4.28c-.08-.71-1.2-.71-1.11,0a6.39,6.39,0,0,0,7.2,5.36C102.9,58.28,102.6,57.21,101.9,57.34Z"/><path class="cls-5" d="M113.55,46c-.07-.71-1.18-.72-1.11,0,.18,1.83.44,3.66.54,5.5a7.94,7.94,0,0,1-.34,2.87,3.18,3.18,0,0,1-.56,1c-.72.89-1-.62-1.15-1a.56.56,0,0,0-1.07.3c.45,1.67,1.83,2.93,3.2,1.24C115.14,53.37,113.84,48.91,113.55,46Z"/><path class="cls-5" d="M73.37,37c-.7.17-.41,1.24.29,1.08,2-.47,2.85,1,3.26,2.73-1.85.36-3.69,1.73-3,3.83.23.68,1.31.39,1.07-.29-.48-1.43.85-2.24,2.09-2.45a20.28,20.28,0,0,1,.16,2.73.56.56,0,0,0,1.11,0C78.37,41.52,77.77,36,73.37,37Z"/><path class="cls-8" d="M102.23,2.41s-23.18-8.72-40.16,7C46.35,24,59.52,51.22,61,53.24c1.65,4.34,1.22,6.93,3.75,7.28,4.13.56,6.16-5,6.16-6.27,3.9,12.2,6.74-5.63,6.74-5.63s-9-1.72-8.91-7.32C69,32.86,77.38,31.78,81.09,36c.74,3.12,8.9.16,10-9.12-.37,11.13,7.05,14.19,17.44,2.83-1.11,6.45,7,10.07,11.88,0C125,20.42,120.23,4.68,102.23,2.41Z"/><path class="cls-3" d="M135.53,143.12c5.78-1.08,4.94-6,0-5,3.64-.78,4.58-3.61,2.93-4.94s-9.77-.18-9.77-.18l-.64,0c-3.83,8.76,2.17,17.16,2.17,17.16a23.5,23.5,0,0,1,5.31-1.45C140.83,147.18,141,143.3,135.53,143.12Z"/><path class="cls-5" d="M129.41,131.71s-17.35-3.06-27.92-5.28c-1.32-2.77-2.78-8.37-4.13-15,0,0-.78-12.59-1.06-17.61S92.74,81,92.74,81s6.06-6.16,6.06-13.65c0,0-17.15-10.67-27.88-13.11-3.28.38-6.07,14.58-6.07,14.58s-15,7.2-12.92,27.81S70.42,156.76,88,159c12.52,1.59,31.39-3.45,43.08-7.15C131.08,147,129.41,131.71,129.41,131.71Z"/><path class="cls-1" d="M89.84,122.27A19.06,19.06,0,0,0,84.52,124c-.64.34-.08,1.3.56,1a17.9,17.9,0,0,1,5.06-1.61C90.84,123.2,90.54,122.13,89.84,122.27Z"/><path class="cls-1" d="M74,82.63c-.64-.33-1.2.63-.56,1a33.51,33.51,0,0,1,4.08,2.6c.58.42,1.14-.55.56-1A33.51,33.51,0,0,0,74,82.63Z"/><path class="cls-1" d="M78,75.8c3.42,1.85,7.06,3.24,10.21,5.56.57.43,1.13-.54.56-1-3.15-2.32-6.79-3.71-10.2-5.56C78,74.5,77.39,75.46,78,75.8Z"/><path class="cls-1" d="M81.92,74.87a.56.56,0,0,0,.56-1C77.42,71,71.12,67.53,65,68.05c-.11.48-.17.78-.17.78s-.31.15-.84.47C70.18,68.19,76.78,71.9,81.92,74.87Z"/><path class="cls-1" d="M93.29,82.4C93,81.54,92.74,81,92.74,81l.31-.33c-1.45-1.24-3-2.34-4.52-3.53-.56-.44-1.35.34-.79.79C89.6,79.41,91.57,80.76,93.29,82.4Z"/><path class="cls-1" d="M100.74,124.6a8.93,8.93,0,0,1-4.5-2.91c-1.45-2-2.22-4.54-3.24-6.73-3.47-7.45-5.43-15.74-9.76-22.75a.56.56,0,0,0-1,.57c2.57,4.15,4.15,8.73,5.75,13.32,1.37,3.93,3.19,7.56,4.89,11.35a26.93,26.93,0,0,0,2.52,5,18,18,0,0,0-5.54,3c-.57.43,0,1.4.56,1a16.89,16.89,0,0,1,5.76-3.08,11.74,11.74,0,0,0,5.06,2.59Q101,125.35,100.74,124.6Z"/><path class="cls-1" d="M67.92,79.77c-5.13-.62-11.81,1.69-15.38,5.83-.2.85-.37,1.73-.5,2.65l0,0c2.72-5.08,10.3-8,15.85-7.33C68.63,81,68.62,79.86,67.92,79.77Z"/><path class="cls-1" d="M95.11,70.27c.64-1.34,1.18-2.72,1.73-4.09l-1-.57c-.55,1.38-1.09,2.76-1.73,4.09C93.84,70.35,94.8,70.91,95.11,70.27Z"/><path class="cls-1" d="M90,67.62c.64-1.41,1.31-2.82,2-4.21l-1-.53q-1,2.07-2,4.18C88.75,67.71,89.71,68.27,90,67.62Z"/><path class="cls-1" d="M83.48,64.52a36.84,36.84,0,0,1,1.81-4.64l-1-.49a36.38,36.38,0,0,0-1.87,4.84C82.19,64.91,83.27,65.21,83.48,64.52Z"/><path class="cls-1" d="M78.28,62.26a25.21,25.21,0,0,1,2.29-4.59c-.34-.16-.69-.31-1-.45A26.39,26.39,0,0,0,77.21,62C76.94,62.63,78,62.91,78.28,62.26Z"/><path class="cls-1" d="M72.16,60.25a29.17,29.17,0,0,1,2.25-5c-.37-.13-.73-.24-1.09-.35A31.73,31.73,0,0,0,71.09,60C70.84,60.63,71.92,60.92,72.16,60.25Z"/><path class="cls-2" d="M68.56,140.21c-2.66-3.15-5.36-6.29-8-9.45a.57.57,0,0,0-.39-.7s0,0,0-.07c1.94-5,7.68-25-3.26-23.67-7.45.89-1.47,15.48,1.3,21.7-3.56-4.23-7.05-8.53-10.3-13a.5.5,0,0,0,0-.17.49.49,0,0,0,0-.38c-.1-.35-.23-.7-.35-1.06a13.28,13.28,0,0,1,1-4.45c.69-2.16,1.48-4.28,2-6.5s.36-7.13-2.45-8-3.86,3.21-4.29,5.09c-1,4.34.78,8.69,2.27,12.81-1.92-2.75-3.73-5.56-5.42-8.46-1.71-4.22.35-9.31.92-13.58.66-5,.22-9.91-2.79-14.14-1.41-2-3.59-2.57-5.31-.69-2.11,2.29-2.45,6.57-2,9.48.73,5.08,3.32,10.19,5.61,14.74.26.52.55,1,.83,1.55,0,.12,0,.25,0,.38a40.36,40.36,0,0,0-10.13-6.34.54.54,0,0,0-.41-.2H27.3a22.81,22.81,0,0,0-11.71-1.58C10.71,94.26.65,95.93,0,102.26c-.59,5.92,7.86,2.8,10.4,1.73,3.28-1.38,6.43-3.09,9.59-4.72,2-1,4.72-2.94,7.09-3a42.55,42.55,0,0,1,12.46,8.36.54.54,0,0,0,.18.1.18.18,0,0,0,0,.07c1.72,2.94,3.59,5.78,5.54,8.56-.13-.06-6.92-4.12-18.6-2.75-3.15.36-10.37,2.56-9.08,7.12s8.43,2.32,11.43,1.53c3.25-.85,6.44-1.93,9.65-2.89a28.78,28.78,0,0,1,7.07-1.59.45.45,0,0,0,.2,0h.33c3.23,4.51,6.71,8.83,10.27,13.08-3.13-1.81-7.59-1.83-10.89-1.61s-9.3,1.06-10.51,5c-1.43,4.59,4.57,4.59,7.25,4.15A79.22,79.22,0,0,0,52,132.85c2.32-.69,4.87-1.64,7.34-1.7,2.8,3.29,5.63,6.55,8.4,9.85C68.24,141.55,69,140.75,68.56,140.21Z"/><path class="cls-2" d="M28,92.23a.44.44,0,0,0,.47.12.58.58,0,0,0,.4-.81h0c-2.45-5.39-4.59-25.92-13.49-23.07C5.72,71.53,24.3,90,28,92.23Z"/><path class="cls-2" d="M17.34,73.63a.56.56,0,0,0,0,1.12A.56.56,0,0,0,17.34,73.63Z"/><path class="cls-2" d="M31.06,114.82a.56.56,0,0,0,0,1.11A.56.56,0,0,0,31.06,114.82Z"/><path class="cls-2" d="M58,111.66v-.27a.56.56,0,0,0-1.11,0v.27A.56.56,0,0,0,58,111.66Z"/><path class="cls-8" d="M224.62,112.64c.73-1.07,1.46-2.13,2.16-3.21,4-2.84,9.68-3.25,13.75-6.07,1.63-1.14,5.32-5.9,2-7.35-2.64-1.15-7.17,3.29-8.85,4.72-1.13,1-2.35,2-3.54,3.08a25.75,25.75,0,0,0,2.62-7.09c.36-1.91,1.12-6.84-1.26-8-1.92-.92-3.67,1.45-4.56,2.82-1.7,2.62-1.82,5.52-2.16,8.52-.47,4.08-1.14,8.19-1.22,12.3a.5.5,0,0,0,0,.13c-2.39,3.54-5,7-7.59,10.3a29.94,29.94,0,0,0,.29-8.27c-.15-2.1-.64-6.84-3.55-7.08-3.33-.27-4.23,3-3.75,5.67.78,4.35,3.86,7.76,5.31,11.83l0,0c-2.42,3-5,6-7.57,8.86l-.09.06a.55.55,0,0,0-.15.2c-3.94,4.37-8,8.65-11.9,13.06-.47.53.26,1.37.74.83,3.91-4.42,8-8.73,11.9-13.12,4.48-.12,9.09,1.11,13.59,1.23,3,.08,10.17.24,10.65-4.08,1.07-9.63-14.18-4.14-21.52-.2,2.91-3.32,5.74-6.7,8.38-10.24.52-.7,1-1.42,1.54-2.13a.66.66,0,0,0,.24,0c5.68-1.6,11.67-1.58,17.15-4a7.65,7.65,0,0,0,4.44-4.59c.38-1.06.71-2.73-.33-3.54-2.57-2-8,1.53-10.16,2.73a61.47,61.47,0,0,0-8.27,5.18c.55-.79,1.07-1.59,1.6-2.38A.44.44,0,0,0,224.62,112.64Z"/><path class="cls-8" d="M236.07,94.76a.44.44,0,0,0,.66,0c2-2.21,4.25-4.19,6.18-6.49,1.18-1.4,4.49-5.24,2.65-7.26-2.16-2.37-5-.37-6.21,1.8-2,3.52-1.94,7.72-3.51,11.36A.46.46,0,0,0,236.07,94.76Z"/><path class="cls-1" d="M122,88.84s2.94-7.57,7.79-4.88c3.39,1.88,1.3,9.89-9,15.14-8.65-5.25-10.73-14.15-7-16C119.49,80.28,122,88.84,122,88.84Z"/><path class="cls-5" d="M237.66,66.3s3.76-4.58,6.51-1.62c1.93,2.08-1.34,7.16-9.7,8.45-4.81-5.6-4.24-12.24-1.27-12.66C237.87,59.8,237.66,66.3,237.66,66.3Z"/><path class="cls-5" d="M46.86,61.6s-.68-5.88,3.37-5.79c2.83.06,4.21,5.94-.69,12.84-7.37-.44-11.74-5.47-10-7.91C42.34,56.93,46.86,61.6,46.86,61.6Z"/></g></g></g></svg>